<?xml version="1.0" encoding="UTF-8"?>
<svg width="379px" height="152px" viewBox="0 0 379 152" version="1.1" xmlns="http://www.w3.org/2000/svg" xmlns:xlink="http://www.w3.org/1999/xlink">
    <!-- Generator: Sketch 57.1 (83088) - https://sketch.com -->
    <title>icon01</title>
    <desc>Created with Sketch.</desc>
    <defs>
        <linearGradient x1="50%" y1="0%" x2="50%" y2="100%" id="linearGradient-1">
            <stop stop-color="#FF9291" offset="0%"></stop>
            <stop stop-color="#F7756D" offset="100%"></stop>
        </linearGradient>
        <linearGradient x1="50%" y1="0%" x2="50%" y2="100%" id="linearGradient-2">
            <stop stop-color="#FF9291" offset="0%"></stop>
            <stop stop-color="#F7756D" offset="100%"></stop>
        </linearGradient>
        <linearGradient x1="29.8326146%" y1="39.3011582%" x2="70.9096211%" y2="56.9420171%" id="linearGradient-3">
            <stop stop-color="#3A2909" offset="0%"></stop>
            <stop stop-color="#A18141" offset="52.6589113%"></stop>
            <stop stop-color="#3A2909" offset="100%"></stop>
        </linearGradient>
        <path d="M11.5307337,0.634050671 L15.5403341,2.29488152 C16.5204464,2.70085734 17.2991427,3.47955357 17.7051185,4.45966592 L19.3659493,8.46926627 C19.7719252,9.44937862 19.7719252,10.5506214 19.3659493,11.5307337 L17.7051185,15.5403341 C17.2991427,16.5204464 16.5204464,17.2991427 15.5403341,17.7051185 L11.5307337,19.3659493 C10.5506214,19.7719252 9.44937862,19.7719252 8.46926627,19.3659493 L4.45966592,17.7051185 C3.47955357,17.2991427 2.70085734,16.5204464 2.29488152,15.5403341 L0.634050671,11.5307337 C0.228074845,10.5506214 0.228074845,9.44937862 0.634050671,8.46926627 L2.29488152,4.45966592 C2.70085734,3.47955357 3.47955357,2.70085734 4.45966592,2.29488152 L8.46926627,0.634050671 C9.44937862,0.228074845 10.5506214,0.228074845 11.5307337,0.634050671 Z" id="path-4"></path>
        <filter x="-8.4%" y="-3.4%" width="116.7%" height="116.7%" filterUnits="objectBoundingBox" id="filter-5">
            <feOffset dx="0" dy="1" in="SourceAlpha" result="shadowOffsetOuter1"></feOffset>
            <feGaussianBlur stdDeviation="0.5" in="shadowOffsetOuter1" result="shadowBlurOuter1"></feGaussianBlur>
            <feComposite in="shadowBlurOuter1" in2="SourceAlpha" operator="out" result="shadowBlurOuter1"></feComposite>
            <feColorMatrix values="0 0 0 0 0   0 0 0 0 0   0 0 0 0 0  0 0 0 0.1 0" type="matrix" in="shadowBlurOuter1"></feColorMatrix>
        </filter>
        <path d="M10.9063171,6.6 C10.0096341,6.6 9.78902625,6.99020579 9.62259423,7.3929188 L9.62259423,7.3929188 C9.53913418,7.59501979 8.38689744,10.4448819 7.65635358,12.1867622 L7.65635358,12.1867622 C6.92610256,10.4448819 5.77386582,7.59501979 5.69030816,7.3929188 L5.69030816,7.3929188 C5.52397375,6.99020579 5.3033659,6.6 4.4069757,6.6 L4.4069757,6.6 L3.6,6.6 C3.6,6.6 6.62359649,13.7345817 6.66625385,13.8101215 L6.66625385,13.8101215 C6.71349907,13.8928082 6.90482269,14.204 7.65606074,14.204 L7.65606074,14.204 L7.65635358,14.204 L7.65693926,14.204 C8.40817731,14.204 8.59950093,13.8928082 8.647039,13.8101215 L8.647039,13.8101215 C8.68969635,13.7345817 11.713,6.6 11.713,6.6 L11.713,6.6 L10.9063171,6.6 Z" id="path-6"></path>
        <filter x="-24.7%" y="-13.2%" width="149.3%" height="152.6%" filterUnits="objectBoundingBox" id="filter-7">
            <feOffset dx="0" dy="1" in="SourceAlpha" result="shadowOffsetOuter1"></feOffset>
            <feGaussianBlur stdDeviation="0.5" in="shadowOffsetOuter1" result="shadowBlurOuter1"></feGaussianBlur>
            <feColorMatrix values="0 0 0 0 0.651556194   0 0 0 0 0.37275359   0 0 0 0 0.128335565  0 0 0 0.125509511 0" type="matrix" in="shadowBlurOuter1"></feColorMatrix>
        </filter>
        <path d="M13.1838863,9.36488799 C13.0007444,9.36488799 12.8681245,9.37571411 12.7445263,9.39014894 L12.97819,7.82667694 L14.6508254,7.82667694 C15.2178434,7.82667694 15.6775023,7.36701802 15.6775023,6.8 L15.6775023,6.8 L15.6775023,6.8 L12.8007881,6.8 C12.4002136,6.8 12.0613881,7.09626629 12.0079411,7.4932592 L11.6402875,10.2241084 C11.629095,10.3072438 11.6874162,10.3837116 11.7705516,10.3949041 C11.7832944,10.3966197 11.7962035,10.3967102 11.8089692,10.3951736 L11.8089692,10.3951736 L11.8089692,10.3951736 C12.063383,10.3626953 12.3511773,10.325706 12.7192653,10.325706 C13.9399102,10.325706 14.618347,10.8399467 14.6291731,11.7709929 C14.6291731,12.6984304 13.8478882,13.1838014 13.0756251,13.1838014 C12.8695665,13.1838014 12.6315334,13.1446861 12.3615257,13.0664556 C11.8722921,12.9247147 11.3587028,13.1960012 11.2,13.6799985 L11.2,13.6799985 L11.2,13.6799985 C11.9091108,14.0119995 12.5379279,14.178 13.0864512,14.178 C14.6697711,14.178 15.8182419,13.1206491 15.8182419,11.6627317 C15.8182419,10.8372402 15.4303059,10.1425642 14.7572822,9.75913915 C14.3260418,9.50111665 13.7820293,9.36488799 13.1838863,9.36488799 Z" id="path-8"></path>
        <filter x="-45.1%" y="-16.3%" width="192.8%" height="159.6%" filterUnits="objectBoundingBox" id="filter-9">
            <feMorphology radius="0.2" operator="dilate" in="SourceAlpha" result="shadowSpreadOuter1"></feMorphology>
            <feOffset dx="0" dy="1" in="shadowSpreadOuter1" result="shadowOffsetOuter1"></feOffset>
            <feGaussianBlur stdDeviation="0.5" in="shadowOffsetOuter1" result="shadowBlurOuter1"></feGaussianBlur>
            <feComposite in="shadowBlurOuter1" in2="SourceAlpha" operator="out" result="shadowBlurOuter1"></feComposite>
            <feColorMatrix values="0 0 0 0 0.651556194   0 0 0 0 0.37275359   0 0 0 0 0.128335565  0 0 0 0.125509511 0" type="matrix" in="shadowBlurOuter1"></feColorMatrix>
        </filter>
        <linearGradient x1="29.8326146%" y1="39.3011582%" x2="70.9096211%" y2="56.9420171%" id="linearGradient-10">
            <stop stop-color="#5C0E0E" offset="0%"></stop>
            <stop stop-color="#D53A41" offset="52.6589113%"></stop>
            <stop stop-color="#5C0E0E" offset="100%"></stop>
        </linearGradient>
        <path d="M11.5307337,0.634050671 L15.5403341,2.29488152 C16.5204464,2.70085734 17.2991427,3.47955357 17.7051185,4.45966592 L19.3659493,8.46926627 C19.7719252,9.44937862 19.7719252,10.5506214 19.3659493,11.5307337 L17.7051185,15.5403341 C17.2991427,16.5204464 16.5204464,17.2991427 15.5403341,17.7051185 L11.5307337,19.3659493 C10.5506214,19.7719252 9.44937862,19.7719252 8.46926627,19.3659493 L4.45966592,17.7051185 C3.47955357,17.2991427 2.70085734,16.5204464 2.29488152,15.5403341 L0.634050671,11.5307337 C0.228074845,10.5506214 0.228074845,9.44937862 0.634050671,8.46926627 L2.29488152,4.45966592 C2.70085734,3.47955357 3.47955357,2.70085734 4.45966592,2.29488152 L8.46926627,0.634050671 C9.44937862,0.228074845 10.5506214,0.228074845 11.5307337,0.634050671 Z" id="path-11"></path>
        <filter x="-8.4%" y="-3.4%" width="116.7%" height="116.7%" filterUnits="objectBoundingBox" id="filter-12">
            <feOffset dx="0" dy="1" in="SourceAlpha" result="shadowOffsetOuter1"></feOffset>
            <feGaussianBlur stdDeviation="0.5" in="shadowOffsetOuter1" result="shadowBlurOuter1"></feGaussianBlur>
            <feComposite in="shadowBlurOuter1" in2="SourceAlpha" operator="out" result="shadowBlurOuter1"></feComposite>
            <feColorMatrix values="0 0 0 0 0   0 0 0 0 0   0 0 0 0 0  0 0 0 0.1 0" type="matrix" in="shadowBlurOuter1"></feColorMatrix>
        </filter>
        <path d="M10.6063171,6.7 C9.7096341,6.7 9.48902625,7.09020579 9.32259423,7.4929188 L9.32259423,7.4929188 C9.23913418,7.69501979 8.08689744,10.5448819 7.35635358,12.2867622 L7.35635358,12.2867622 C6.62610256,10.5448819 5.47386582,7.69501979 5.39030816,7.4929188 L5.39030816,7.4929188 C5.22397375,7.09020579 5.0033659,6.7 4.1069757,6.7 L4.1069757,6.7 L3.3,6.7 C3.3,6.7 6.32359649,13.8345817 6.36625385,13.9101215 L6.36625385,13.9101215 C6.41349907,13.9928082 6.60482269,14.304 7.35606074,14.304 L7.35606074,14.304 L7.35635358,14.304 L7.35693926,14.304 C8.10817731,14.304 8.29950093,13.9928082 8.347039,13.9101215 L8.347039,13.9101215 C8.38969635,13.8345817 11.413,6.7 11.413,6.7 L11.413,6.7 L10.6063171,6.7 Z" id="path-13"></path>
        <filter x="-24.7%" y="-13.2%" width="149.3%" height="152.6%" filterUnits="objectBoundingBox" id="filter-14">
            <feOffset dx="0" dy="1" in="SourceAlpha" result="shadowOffsetOuter1"></feOffset>
            <feGaussianBlur stdDeviation="0.5" in="shadowOffsetOuter1" result="shadowBlurOuter1"></feGaussianBlur>
            <feColorMatrix values="0 0 0 0 0.651556194   0 0 0 0 0.37275359   0 0 0 0 0.128335565  0 0 0 0.125509511 0" type="matrix" in="shadowBlurOuter1"></feColorMatrix>
        </filter>
        <path d="M16.0951387,8.44073366 C16.0951387,7.52407799 15.4187804,6.6 13.9092675,6.6 C13.3692942,6.6 12.6926266,6.80998961 11.8792648,7.22996883 C12.0478118,7.69810341 12.5639442,7.94096716 13.0320788,7.77242019 C13.035448,7.77120713 13.03881,7.76997399 13.0421725,7.76874229 C13.304947,7.670578 13.5308889,7.62149585 13.7199985,7.62149585 C14.7600501,7.62149585 14.8723126,8.30342087 14.8723126,8.59660224 C14.8723126,9.40934553 13.9769961,9.70438248 13.3748609,9.70438248 L13.1976532,9.70438248 C12.9306908,9.70438248 12.7142751,9.92079824 12.7142751,10.1877606 C12.7142751,10.454723 12.9306908,10.6711388 13.1976532,10.6711388 L13.3748609,10.6711388 L13.3748609,10.6711388 C14.1773985,10.6711388 15.1181767,11.0199875 15.1283824,12.003444 C15.1348769,12.3337369 15.011481,12.6519686 14.791595,12.8764936 C14.5234639,13.1492636 14.1254423,13.2875042 13.6086638,13.2875042 C13.1017435,13.2875042 12.5557298,13.1338818 11.9706229,12.8266371 C11.5626176,12.6124341 11.0582048,12.7694992 10.8439672,13.1774863 C10.8253405,13.2129585 10.8092929,13.2497262 10.795949,13.2875042 L10.795949,13.2875042 L10.795949,13.2875042 C11.9319832,13.9685014 12.873266,14.309 13.6197973,14.309 C15.521765,14.309 16.3734754,13.1613248 16.3734754,12.0238553 C16.3734754,11.1331778 15.8316466,10.4178523 14.9678749,10.1311655 C15.6887671,9.77767782 16.0951387,9.17461488 16.0951387,8.44073366 Z" id="path-15"></path>
        <filter x="-37.7%" y="-15.6%" width="177.1%" height="157.1%" filterUnits="objectBoundingBox" id="filter-16">
            <feMorphology radius="0.2" operator="dilate" in="SourceAlpha" result="shadowSpreadOuter1"></feMorphology>
            <feOffset dx="0" dy="1" in="shadowSpreadOuter1" result="shadowOffsetOuter1"></feOffset>
            <feGaussianBlur stdDeviation="0.5" in="shadowOffsetOuter1" result="shadowBlurOuter1"></feGaussianBlur>
            <feComposite in="shadowBlurOuter1" in2="SourceAlpha" operator="out" result="shadowBlurOuter1"></feComposite>
            <feColorMatrix values="0 0 0 0 0.651556194   0 0 0 0 0.37275359   0 0 0 0 0.128335565  0 0 0 0.125509511 0" type="matrix" in="shadowBlurOuter1"></feColorMatrix>
        </filter>
        <linearGradient x1="29.8326146%" y1="39.3011582%" x2="70.9096211%" y2="56.9420171%" id="linearGradient-17">
            <stop stop-color="#605D5C" offset="0%"></stop>
            <stop stop-color="#9E9C97" offset="52.6589113%"></stop>
            <stop stop-color="#605D5C" offset="100%"></stop>
        </linearGradient>
        <path d="M11.5307337,0.634050671 L15.5403341,2.29488152 C16.5204464,2.70085734 17.2991427,3.47955357 17.7051185,4.45966592 L19.3659493,8.46926627 C19.7719252,9.44937862 19.7719252,10.5506214 19.3659493,11.5307337 L17.7051185,15.5403341 C17.2991427,16.5204464 16.5204464,17.2991427 15.5403341,17.7051185 L11.5307337,19.3659493 C10.5506214,19.7719252 9.44937862,19.7719252 8.46926627,19.3659493 L4.45966592,17.7051185 C3.47955357,17.2991427 2.70085734,16.5204464 2.29488152,15.5403341 L0.634050671,11.5307337 C0.228074845,10.5506214 0.228074845,9.44937862 0.634050671,8.46926627 L2.29488152,4.45966592 C2.70085734,3.47955357 3.47955357,2.70085734 4.45966592,2.29488152 L8.46926627,0.634050671 C9.44937862,0.228074845 10.5506214,0.228074845 11.5307337,0.634050671 Z" id="path-18"></path>
        <filter x="-8.4%" y="-3.4%" width="116.7%" height="116.7%" filterUnits="objectBoundingBox" id="filter-19">
            <feOffset dx="0" dy="1" in="SourceAlpha" result="shadowOffsetOuter1"></feOffset>
            <feGaussianBlur stdDeviation="0.5" in="shadowOffsetOuter1" result="shadowBlurOuter1"></feGaussianBlur>
            <feComposite in="shadowBlurOuter1" in2="SourceAlpha" operator="out" result="shadowBlurOuter1"></feComposite>
            <feColorMatrix values="0 0 0 0 0   0 0 0 0 0   0 0 0 0 0  0 0 0 0.1 0" type="matrix" in="shadowBlurOuter1"></feColorMatrix>
        </filter>
        <path d="M10.7063171,6.4 C9.8096341,6.4 9.58902625,6.79020579 9.42259423,7.1929188 L9.42259423,7.1929188 C9.33913418,7.39501979 8.18689744,10.2448819 7.45635358,11.9867622 L7.45635358,11.9867622 C6.72610256,10.2448819 5.57386582,7.39501979 5.49030816,7.1929188 L5.49030816,7.1929188 C5.32397375,6.79020579 5.1033659,6.4 4.2069757,6.4 L4.2069757,6.4 L3.4,6.4 C3.4,6.4 6.42359649,13.5345817 6.46625385,13.6101215 L6.46625385,13.6101215 C6.51349907,13.6928082 6.70482269,14.004 7.45606074,14.004 L7.45606074,14.004 L7.45635358,14.004 L7.45693926,14.004 C8.20817731,14.004 8.39950093,13.6928082 8.447039,13.6101215 L8.447039,13.6101215 C8.48969635,13.5345817 11.513,6.4 11.513,6.4 L11.513,6.4 L10.7063171,6.4 Z" id="path-20"></path>
        <filter x="-24.7%" y="-13.2%" width="149.3%" height="152.6%" filterUnits="objectBoundingBox" id="filter-21">
            <feOffset dx="0" dy="1" in="SourceAlpha" result="shadowOffsetOuter1"></feOffset>
            <feGaussianBlur stdDeviation="0.5" in="shadowOffsetOuter1" result="shadowBlurOuter1"></feGaussianBlur>
            <feColorMatrix values="0 0 0 0 0.651556194   0 0 0 0 0.37275359   0 0 0 0 0.128335565  0 0 0 0.125509511 0" type="matrix" in="shadowBlurOuter1"></feColorMatrix>
        </filter>
        <path d="M13.1086998,12.7620648 L13.4849024,12.4147314 C14.923855,11.0281044 15.943301,9.94009392 15.943301,8.55797774 C15.943301,7.48349969 15.2423191,6.4 13.6770635,6.4 C13.1670397,6.4 12.4573369,6.66523639 11.547955,7.19570918 C11.7442462,7.63048093 12.2558238,7.82380759 12.6905956,7.62751636 C12.694882,7.62558112 12.6991526,7.62361091 12.7034106,7.62161388 C12.9957673,7.48382808 13.2553624,7.41493518 13.4821959,7.41493518 C14.5981735,7.41493518 14.765074,8.20523138 14.765074,8.67525914 C14.7551502,9.66583588 13.9955276,10.5472507 12.1812746,12.2739938 L11.66697,12.7734511 C11.4963043,12.9391901 11.4,13.1669575 11.4,13.4048571 C11.4,13.6103859 11.5666141,13.777 11.7721429,13.777 L16.1156144,13.777 L16.1156144,13.777 C16.1156144,13.2164668 15.6612124,12.7620648 15.1006792,12.7620648 L13.1086998,12.7620648 L13.1086998,12.7620648 Z" id="path-22"></path>
        <filter x="-44.5%" y="-16.3%" width="191.2%" height="159.6%" filterUnits="objectBoundingBox" id="filter-23">
            <feMorphology radius="0.2" operator="dilate" in="SourceAlpha" result="shadowSpreadOuter1"></feMorphology>
            <feOffset dx="0" dy="1" in="shadowSpreadOuter1" result="shadowOffsetOuter1"></feOffset>
            <feGaussianBlur stdDeviation="0.5" in="shadowOffsetOuter1" result="shadowBlurOuter1"></feGaussianBlur>
            <feComposite in="shadowBlurOuter1" in2="SourceAlpha" operator="out" result="shadowBlurOuter1"></feComposite>
            <feColorMatrix values="0 0 0 0 0.651556194   0 0 0 0 0.37275359   0 0 0 0 0.128335565  0 0 0 0.125509511 0" type="matrix" in="shadowBlurOuter1"></feColorMatrix>
        </filter>
        <path d="M11.5307337,0.634050671 L15.5403341,2.29488152 C16.5204464,2.70085734 17.2991427,3.47955357 17.7051185,4.45966592 L19.3659493,8.46926627 C19.7719252,9.44937862 19.7719252,10.5506214 19.3659493,11.5307337 L17.7051185,15.5403341 C17.2991427,16.5204464 16.5204464,17.2991427 15.5403341,17.7051185 L11.5307337,19.3659493 C10.5506214,19.7719252 9.44937862,19.7719252 8.46926627,19.3659493 L4.45966592,17.7051185 C3.47955357,17.2991427 2.70085734,16.5204464 2.29488152,15.5403341 L0.634050671,11.5307337 C0.228074845,10.5506214 0.228074845,9.44937862 0.634050671,8.46926627 L2.29488152,4.45966592 C2.70085734,3.47955357 3.47955357,2.70085734 4.45966592,2.29488152 L8.46926627,0.634050671 C9.44937862,0.228074845 10.5506214,0.228074845 11.5307337,0.634050671 Z" id="path-24"></path>
        <filter x="-8.4%" y="-3.4%" width="116.7%" height="116.7%" filterUnits="objectBoundingBox" id="filter-25">
            <feOffset dx="0" dy="1" in="SourceAlpha" result="shadowOffsetOuter1"></feOffset>
            <feGaussianBlur stdDeviation="0.5" in="shadowOffsetOuter1" result="shadowBlurOuter1"></feGaussianBlur>
            <feComposite in="shadowBlurOuter1" in2="SourceAlpha" operator="out" result="shadowBlurOuter1"></feComposite>
            <feColorMatrix values="0 0 0 0 0   0 0 0 0 0   0 0 0 0 0  0 0 0 0.1 0" type="matrix" in="shadowBlurOuter1"></feColorMatrix>
        </filter>
        <path d="M11.6063171,6.4 C10.7096341,6.4 10.4890263,6.79020579 10.3225942,7.1929188 L10.3225942,7.1929188 C10.2391342,7.39501979 9.08689744,10.2448819 8.35635358,11.9867622 L8.35635358,11.9867622 C7.62610256,10.2448819 6.47386582,7.39501979 6.39030816,7.1929188 L6.39030816,7.1929188 C6.22397375,6.79020579 6.0033659,6.4 5.1069757,6.4 L5.1069757,6.4 L4.3,6.4 C4.3,6.4 7.32359649,13.5345817 7.36625385,13.6101215 L7.36625385,13.6101215 C7.41349907,13.6928082 7.60482269,14.004 8.35606074,14.004 L8.35606074,14.004 L8.35635358,14.004 L8.35693926,14.004 C9.10817731,14.004 9.29950093,13.6928082 9.347039,13.6101215 L9.347039,13.6101215 C9.38969635,13.5345817 12.413,6.4 12.413,6.4 L12.413,6.4 L11.6063171,6.4 Z" id="path-26"></path>
        <filter x="-24.7%" y="-13.2%" width="149.3%" height="152.6%" filterUnits="objectBoundingBox" id="filter-27">
            <feOffset dx="0" dy="1" in="SourceAlpha" result="shadowOffsetOuter1"></feOffset>
            <feGaussianBlur stdDeviation="0.5" in="shadowOffsetOuter1" result="shadowBlurOuter1"></feGaussianBlur>
            <feColorMatrix values="0 0 0 0 0.651556194   0 0 0 0 0.37275359   0 0 0 0 0.128335565  0 0 0 0.125509511 0" type="matrix" in="shadowBlurOuter1"></feColorMatrix>
        </filter>
        <path d="M13.3106,6.7 L13.3001962,7.29880123 C13.3000654,7.3063283 13.3,7.31385636 13.3,7.32138457 L13.3,7.85991499 L13.3,7.85991499 L13.3,12.576 C13.3,13.2774016 13.8685984,13.846 14.57,13.846 L14.57,13.846 L14.57,13.846 L14.57,7.9594 C14.57,7.26385259 14.0061474,6.7 13.3106,6.7 L13.3106,6.7 L13.3106,6.7 Z" id="path-28"></path>
        <filter x="-173.2%" y="-16.8%" width="446.5%" height="161.6%" filterUnits="objectBoundingBox" id="filter-29">
            <feMorphology radius="0.2" operator="dilate" in="SourceAlpha" result="shadowSpreadOuter1"></feMorphology>
            <feOffset dx="0" dy="1" in="shadowSpreadOuter1" result="shadowOffsetOuter1"></feOffset>
            <feGaussianBlur stdDeviation="0.5" in="shadowOffsetOuter1" result="shadowBlurOuter1"></feGaussianBlur>
            <feComposite in="shadowBlurOuter1" in2="SourceAlpha" operator="out" result="shadowBlurOuter1"></feComposite>
            <feColorMatrix values="0 0 0 0 0.651556194   0 0 0 0 0.37275359   0 0 0 0 0.128335565  0 0 0 0.125509511 0" type="matrix" in="shadowBlurOuter1"></feColorMatrix>
        </filter>
        <path d="M11.5307337,0.634050671 L15.5403341,2.29488152 C16.5204464,2.70085734 17.2991427,3.47955357 17.7051185,4.45966592 L19.3659493,8.46926627 C19.7719252,9.44937862 19.7719252,10.5506214 19.3659493,11.5307337 L17.7051185,15.5403341 C17.2991427,16.5204464 16.5204464,17.2991427 15.5403341,17.7051185 L11.5307337,19.3659493 C10.5506214,19.7719252 9.44937862,19.7719252 8.46926627,19.3659493 L4.45966592,17.7051185 C3.47955357,17.2991427 2.70085734,16.5204464 2.29488152,15.5403341 L0.634050671,11.5307337 C0.228074845,10.5506214 0.228074845,9.44937862 0.634050671,8.46926627 L2.29488152,4.45966592 C2.70085734,3.47955357 3.47955357,2.70085734 4.45966592,2.29488152 L8.46926627,0.634050671 C9.44937862,0.228074845 10.5506214,0.228074845 11.5307337,0.634050671 Z" id="path-30"></path>
        <filter x="-8.4%" y="-3.4%" width="116.7%" height="116.7%" filterUnits="objectBoundingBox" id="filter-31">
            <feOffset dx="0" dy="1" in="SourceAlpha" result="shadowOffsetOuter1"></feOffset>
            <feGaussianBlur stdDeviation="0.5" in="shadowOffsetOuter1" result="shadowBlurOuter1"></feGaussianBlur>
            <feComposite in="shadowBlurOuter1" in2="SourceAlpha" operator="out" result="shadowBlurOuter1"></feComposite>
            <feColorMatrix values="0 0 0 0 0   0 0 0 0 0   0 0 0 0 0  0 0 0 0.1 0" type="matrix" in="shadowBlurOuter1"></feColorMatrix>
        </filter>
        <path d="M10.2063171,6.4 C9.3096341,6.4 9.08902625,6.79020579 8.92259423,7.1929188 L8.92259423,7.1929188 C8.83913418,7.39501979 7.68689744,10.2448819 6.95635358,11.9867622 L6.95635358,11.9867622 C6.22610256,10.2448819 5.07386582,7.39501979 4.99030816,7.1929188 L4.99030816,7.1929188 C4.82397375,6.79020579 4.6033659,6.4 3.7069757,6.4 L3.7069757,6.4 L2.9,6.4 C2.9,6.4 5.92359649,13.5345817 5.96625385,13.6101215 L5.96625385,13.6101215 C6.01349907,13.6928082 6.20482269,14.004 6.95606074,14.004 L6.95606074,14.004 L6.95635358,14.004 L6.95693926,14.004 C7.70817731,14.004 7.89950093,13.6928082 7.947039,13.6101215 L7.947039,13.6101215 C7.98969635,13.5345817 11.013,6.4 11.013,6.4 L11.013,6.4 L10.2063171,6.4 Z" id="path-32"></path>
        <filter x="-24.7%" y="-13.2%" width="149.3%" height="152.6%" filterUnits="objectBoundingBox" id="filter-33">
            <feOffset dx="0" dy="1" in="SourceAlpha" result="shadowOffsetOuter1"></feOffset>
            <feGaussianBlur stdDeviation="0.5" in="shadowOffsetOuter1" result="shadowBlurOuter1"></feGaussianBlur>
            <feColorMatrix values="0 0 0 0 0.651556194   0 0 0 0 0.37275359   0 0 0 0 0.128335565  0 0 0 0.125509511 0" type="matrix" in="shadowBlurOuter1"></feColorMatrix>
        </filter>
        <path d="M11.5307337,0.634050671 L15.5403341,2.29488152 C16.5204464,2.70085734 17.2991427,3.47955357 17.7051185,4.45966592 L19.3659493,8.46926627 C19.7719252,9.44937862 19.7719252,10.5506214 19.3659493,11.5307337 L17.7051185,15.5403341 C17.2991427,16.5204464 16.5204464,17.2991427 15.5403341,17.7051185 L11.5307337,19.3659493 C10.5506214,19.7719252 9.44937862,19.7719252 8.46926627,19.3659493 L4.45966592,17.7051185 C3.47955357,17.2991427 2.70085734,16.5204464 2.29488152,15.5403341 L0.634050671,11.5307337 C0.228074845,10.5506214 0.228074845,9.44937862 0.634050671,8.46926627 L2.29488152,4.45966592 C2.70085734,3.47955357 3.47955357,2.70085734 4.45966592,2.29488152 L8.46926627,0.634050671 C9.44937862,0.228074845 10.5506214,0.228074845 11.5307337,0.634050671 Z" id="path-34"></path>
        <filter x="-8.4%" y="-3.4%" width="116.7%" height="116.7%" filterUnits="objectBoundingBox" id="filter-35">
            <feOffset dx="0" dy="1" in="SourceAlpha" result="shadowOffsetOuter1"></feOffset>
            <feGaussianBlur stdDeviation="0.5" in="shadowOffsetOuter1" result="shadowBlurOuter1"></feGaussianBlur>
            <feComposite in="shadowBlurOuter1" in2="SourceAlpha" operator="out" result="shadowBlurOuter1"></feComposite>
            <feColorMatrix values="0 0 0 0 0   0 0 0 0 0   0 0 0 0 0  0 0 0 0.1 0" type="matrix" in="shadowBlurOuter1"></feColorMatrix>
        </filter>
        <path d="M11.3063171,7 C10.4096341,7 10.1890263,7.39020579 10.0225942,7.7929188 L10.0225942,7.7929188 C9.93913418,7.99501979 8.78689744,10.8448819 8.05635358,12.5867622 L8.05635358,12.5867622 C7.32610256,10.8448819 6.17386582,7.99501979 6.09030816,7.7929188 L6.09030816,7.7929188 C5.92397375,7.39020579 5.7033659,7 4.8069757,7 L4.8069757,7 L4,7 C4,7 7.02359649,14.1345817 7.06625385,14.2101215 L7.06625385,14.2101215 C7.11349907,14.2928082 7.30482269,14.604 8.05606074,14.604 L8.05606074,14.604 L8.05635358,14.604 L8.05693926,14.604 C8.80817731,14.604 8.99950093,14.2928082 9.047039,14.2101215 L9.047039,14.2101215 C9.08969635,14.1345817 12.113,7 12.113,7 L12.113,7 L11.3063171,7 Z" id="path-36"></path>
        <filter x="-24.7%" y="-13.2%" width="149.3%" height="152.6%" filterUnits="objectBoundingBox" id="filter-37">
            <feOffset dx="0" dy="1" in="SourceAlpha" result="shadowOffsetOuter1"></feOffset>
            <feGaussianBlur stdDeviation="0.5" in="shadowOffsetOuter1" result="shadowBlurOuter1"></feGaussianBlur>
            <feColorMatrix values="0 0 0 0 0.651556194   0 0 0 0 0.37275359   0 0 0 0 0.128335565  0 0 0 0.125509511 0" type="matrix" in="shadowBlurOuter1"></feColorMatrix>
        </filter>
        <path d="M12.3131834,11.4846279 L13.9678501,9.18493736 C14.1140679,8.93969873 14.2399262,8.7231484 14.3648591,8.49549292 C14.3565302,8.72870097 14.3519031,8.96190902 14.3519031,9.19141536 L14.3519031,11.4846279 L12.3131834,11.4846279 Z M15.5049873,11.4846279 L15.5049873,7.5 C15.5049873,7.22385763 15.2811297,7 15.0049873,7 L14.8900399,7 C14.5046659,7 14.143568,7.18816291 13.9227841,7.50402297 L11.1082282,11.5306114 C11.0377807,11.6313957 11,11.7513914 11,11.8743562 L11,12.0833803 C11,12.3031534 11.1781613,12.4813147 11.3979344,12.4813147 L14.3519031,12.4813147 L14.3519031,12.4813147 L14.3519031,14.446 C14.9887339,14.446 15.5049873,13.9297466 15.5049873,13.2929157 L15.5049873,12.4813147 L15.5049873,12.4813147 L16.5146301,12.4813147 C16.5146301,11.9308598 16.0683982,11.4846279 15.5179433,11.4846279 L15.5049873,11.4846279 L15.5049873,11.4846279 Z" id="path-38"></path>
        <filter x="-35.0%" y="-16.1%" width="174.9%" height="159.1%" filterUnits="objectBoundingBox" id="filter-39">
            <feMorphology radius="0.2" operator="dilate" in="SourceAlpha" result="shadowSpreadOuter1"></feMorphology>
            <feOffset dx="0" dy="1" in="shadowSpreadOuter1" result="shadowOffsetOuter1"></feOffset>
            <feGaussianBlur stdDeviation="0.5" in="shadowOffsetOuter1" result="shadowBlurOuter1"></feGaussianBlur>
            <feComposite in="shadowBlurOuter1" in2="SourceAlpha" operator="out" result="shadowBlurOuter1"></feComposite>
            <feColorMatrix values="0 0 0 0 0.651556194   0 0 0 0 0.37275359   0 0 0 0 0.128335565  0 0 0 0.125509511 0" type="matrix" in="shadowBlurOuter1"></feColorMatrix>
        </filter>
        <circle id="path-40" cx="40" cy="40" r="28"></circle>
        <filter x="-33.9%" y="-25.0%" width="167.9%" height="167.9%" filterUnits="objectBoundingBox" id="filter-41">
            <feOffset dx="0" dy="5" in="SourceAlpha" result="shadowOffsetOuter1"></feOffset>
            <feGaussianBlur stdDeviation="5.5" in="shadowOffsetOuter1" result="shadowBlurOuter1"></feGaussianBlur>
            <feColorMatrix values="0 0 0 0 0   0 0 0 0 0   0 0 0 0 0  0 0 0 0.05 0" type="matrix" in="shadowBlurOuter1"></feColorMatrix>
        </filter>
        <circle id="path-42" cx="40" cy="40" r="28"></circle>
        <filter x="-33.9%" y="-25.0%" width="167.9%" height="167.9%" filterUnits="objectBoundingBox" id="filter-43">
            <feOffset dx="0" dy="5" in="SourceAlpha" result="shadowOffsetOuter1"></feOffset>
            <feGaussianBlur stdDeviation="5.5" in="shadowOffsetOuter1" result="shadowBlurOuter1"></feGaussianBlur>
            <feColorMatrix values="0 0 0 0 0   0 0 0 0 0   0 0 0 0 0  0 0 0 0.05 0" type="matrix" in="shadowBlurOuter1"></feColorMatrix>
        </filter>
        <linearGradient x1="100%" y1="62.2511515%" x2="-25.8209229%" y2="42.5976891%" id="linearGradient-44">
            <stop stop-color="#C70000" offset="0%"></stop>
            <stop stop-color="#FF6834" offset="100%"></stop>
        </linearGradient>
        <path d="M43.9726475,23.19 C43.2890501,23.424 39.0758687,25.062 37.0844115,25.894 L36.0650457,23.034 C36.9381091,22.748 36.9791726,22.462 37.0948967,21.656 L39.7677521,3.04 L52.3777521,3.04 L50.6568215,15.026 L50.0588215,15.026 L51.3760427,16.898 C50.0791194,17.782 48.6484631,18.692 47.3367389,19.498 C48.3684852,20.642 49.7458289,21.552 51.6581047,22.358 L49.2158687,25.062 C46.7914528,23.658 45.0987699,22.228 43.9375487,20.356 L43.9726475,23.19 Z M28,24.88 L31.1618834,2.858 L39.5598834,2.858 L39.1492492,5.718 L36.3969085,10.944 C37.3499985,12.998 37.8090885,15.052 37.5403097,16.924 C37.1035442,19.966 35.9104897,21.032 33.1024897,21.032 L31.8024897,21.032 L31.718205,19.446 L30.938,24.88 L28,24.88 Z M33.6817831,5.77 L31.912323,18.094 L32.640323,18.094 C34.044323,18.094 34.4531194,17.782 34.6584365,16.352 C34.8301563,15.156 34.3337359,13.362 33.2022477,11.464 L36.0737831,5.77 L33.6817831,5.77 Z M43.815146,20.122 C42.9767301,18.718 42.4579115,17.08 42.1288215,15.026 L41.1148215,15.026 L40.189028,21.474 L43.815146,20.122 Z M42.432584,5.848 L42.1787374,7.616 L48.6527374,7.616 L48.906584,5.848 L42.432584,5.848 Z M41.5179896,12.218 L47.9919896,12.218 L48.2421032,10.476 L41.7681032,10.476 L41.5179896,12.218 Z M45.9083141,17.314 C47.0973731,16.638 48.2753643,15.858 49.3568215,15.026 L45.1188215,15.026 C45.3336312,15.884 45.5893731,16.638 45.9083141,17.314 Z M54.279059,24.204 L57.2318922,3.638 L66.4098922,3.638 L63.6287788,23.008 L57.6227788,23.008 L57.451059,24.204 L54.279059,24.204 Z M77.5945441,2.338 L76.9748598,6.654 L79.3408598,6.654 L78.8480988,10.086 L76.4820988,10.086 L74.8208967,21.656 C74.4027965,24.568 73.2878732,25.452 69.9078732,25.452 L66.6838732,25.452 L66.5006342,22.02 L69.4646342,22.02 C71.1286342,22.02 71.3144985,21.812 71.4862183,20.616 L72.9980988,10.086 L65.7960988,10.086 L66.2888598,6.654 L73.4908598,6.654 L74.1105441,2.338 L77.5945441,2.338 Z M68.2637935,18.432 C67.5927079,16.768 66.2728038,13.466 65.6386548,12.088 L68.655705,10.632 C69.29732,11.958 70.7508259,15.416 71.3848436,16.976 L68.2637935,18.432 Z M58.1080737,19.628 L60.9940737,19.628 L61.6697536,14.922 L58.7837536,14.922 L58.1080737,19.628 Z M59.9111312,7.07 L59.2429173,11.724 L62.1289173,11.724 L62.7971312,7.07 L59.9111312,7.07 Z M97.9171504,20.512 C97.8282138,20.226 97.7764764,19.862 97.6950059,19.524 C95.9603407,19.654 92.3460781,20.018 90.9827478,20.278 L90.5645899,18.12 L90.5235265,18.406 L87.7675265,18.406 L89.4884571,6.42 L85.7704571,6.42 L84.0345944,18.51 L81.2525944,18.51 L83.4214896,3.404 L92.6774896,3.404 L91.9794114,8.266 C93.3811223,6.29 94.6938967,4.028 95.6090736,2 L98.4760147,2.676 C98.1300235,3.456 97.7542993,4.262 97.3265751,5.068 L105.074575,5.068 C104.94405,5.796 102.426218,20.616 102.236096,21.578 C101.799593,24.256 100.409737,25.244 97.7057375,25.244 L94.5597375,25.244 L94.376236,22.176 L97.106236,22.176 C98.874236,22.176 99.1678333,21.942 99.4512817,20.33 C99.4624808,20.252 99.507146,20.122 99.5370103,19.914 L97.9171504,20.512 Z M88.2865339,24.932 C87.6669233,23.996 86.6539734,22.54 85.7486254,21.24 C84.7446431,22.8 83.2355929,24.256 80.9464115,25.894 L79.1503849,23.554 C83.0298245,21.162 84.4947345,19.108 85.0994867,14.896 L86.1260722,7.746 L88.7520722,7.746 L87.6209616,15.624 C87.5015044,16.456 87.3412463,17.21 87.1624542,17.912 C88.3351371,19.342 90.0903628,21.604 90.8955752,22.696 L88.2865339,24.932 Z M93.3329129,11.334 L91.6882344,10.294 L90.7064454,17.132 C90.9145767,16.95 91.1896401,16.664 91.4239026,16.3 C92.1898893,15.13 94.0867817,11.516 95.0727551,9.176 L97.8652979,10.008 C97.4821076,10.866 96.9985191,11.88 96.4926637,12.868 L98.881587,11.984 L100.070441,16.742 C100.630003,13.388 101.357552,8.864 101.454611,8.188 L95.5266105,8.188 C94.8460899,9.306 94.0987684,10.346 93.3329129,11.334 Z M96.2025368,13.44 C95.3768215,15.026 94.5512374,16.43 94.1051106,17.002 L97.032174,16.716 L96.2025368,13.44 Z" id="path-45"></path>
        <linearGradient x1="73.12%" y1="183.190204%" x2="26.88%" y2="-32.4727957%" id="linearGradient-46">
            <stop stop-color="#F30016" offset="0%"></stop>
            <stop stop-color="#FF6834" offset="100%"></stop>
        </linearGradient>
    </defs>
    <g id="icon01" stroke="none" stroke-width="1" fill="none" fill-rule="evenodd">
        <path d="M15.5,3 C16.3284271,3 17,3.67157288 17,4.5 L17,15.5 C17,16.3284271 16.3284271,17 15.5,17 L4.5,17 C3.67157288,17 3,16.3284271 3,15.5 L3,4.5 C3,3.67157288 3.67157288,3 4.5,3 L15.5,3 Z M7.6969697,10.6060606 L7.6969697,10.6060606 L7.55054866,10.6122895 C6.68188915,10.6865268 6,11.4151467 6,12.3030303 L6,12.3030303 L6,13 L6.00672773,13.1166211 C6.06449284,13.6139598 6.48716416,14 7,14 L7,14 L13,14 L13.1166211,13.9932723 C13.6139598,13.9355072 14,13.5128358 14,13 L14,13 L14,12.3030303 L13.9937711,12.1566093 C13.9195338,11.2879498 13.1909139,10.6060606 12.3030303,10.6060606 L12.3030303,10.6060606 Z M9.98810554,6 C8.95507984,6 8.11764706,6.84116199 8.11764706,7.87878788 C8.11764706,8.91641377 8.95507984,9.75757576 9.98810554,9.75757576 C11.0211312,9.75757576 11.858564,8.91641377 11.858564,7.87878788 C11.858564,6.84116199 11.0211312,6 9.98810554,6 Z" id="合并形状" fill="url(#linearGradient-1)"></path>
        <path d="M30,2 C34.4090015,2 38,5.0309879 38,8.79172521 C38,12.5524625 34.4090015,15.5834504 30,15.5834504 C29.3526578,15.5834504 28.0969567,15.3575359 28.0969567,15.3901313 C28.1175877,15.3944039 27.9153138,15.4825696 27.616899,15.6815652 C27.2337489,15.9370658 26.7180108,16.3422933 26.0738078,16.895134 C25.7813133,17.1461463 25.3146252,16.9135478 25.3730342,16.5458669 C25.4913525,15.801061 25.5551025,15.2346586 25.5551025,14.8423074 C25.5551025,14.7955052 25.5607844,14.6645987 25.5721481,14.4495879 C23.3610244,13.2003334 22,11.0964658 22,8.79172521 C22,5.0309879 25.5909985,2 30,2 Z M34,7.92054197 C33.4477153,7.92054197 33,8.36232812 33,8.90729896 C33,9.4522698 33.4477153,9.89405596 34,9.89405596 C34.5522847,9.89405596 35,9.4522698 35,8.90729896 C35,8.36232812 34.5522847,7.92054197 34,7.92054197 Z M30,7.92054197 C29.4477153,7.92054197 29,8.36232812 29,8.90729896 C29,9.4522698 29.4477153,9.89405596 30,9.89405596 C30.5522847,9.89405596 31,9.4522698 31,8.90729896 C31,8.36232812 30.5522847,7.92054197 30,7.92054197 Z M26,7.92054197 C25.4477153,7.92054197 25,8.36232812 25,8.90729896 C25,9.4522698 25.4477153,9.89405596 26,9.89405596 C26.5522847,9.89405596 27,9.4522698 27,8.90729896 C27,8.36232812 26.5522847,7.92054197 26,7.92054197 Z" id="合并形状" fill="url(#linearGradient-2)"></path>
        <path d="M55.5,3 C56.3284271,3 57,3.67157288 57,4.5 L57,15.5 C57,16.3284271 56.3284271,17 55.5,17 L44.5,17 C43.6715729,17 43,16.3284271 43,15.5 L43,4.5 C43,3.67157288 43.6715729,3 44.5,3 L55.5,3 Z M47.6969697,10.6060606 L47.6969697,10.6060606 L47.5505487,10.6122895 C46.6818892,10.6865268 46,11.4151467 46,12.3030303 L46,12.3030303 L46,13 L46.0067277,13.1166211 C46.0644928,13.6139598 46.4871642,14 47,14 L47,14 L53,14 L53.1166211,13.9932723 C53.6139598,13.9355072 54,13.5128358 54,13 L54,13 L54,12.3030303 L53.9937711,12.1566093 C53.9195338,11.2879498 53.1909139,10.6060606 52.3030303,10.6060606 L52.3030303,10.6060606 Z M49.9881055,6 C48.9550798,6 48.1176471,6.84116199 48.1176471,7.87878788 C48.1176471,8.91641377 48.9550798,9.75757576 49.9881055,9.75757576 C51.0211312,9.75757576 51.858564,8.91641377 51.858564,7.87878788 C51.858564,6.84116199 51.0211312,6 49.9881055,6 Z" id="合并形状" fill="#A5A3A3"></path>
        <g id="分组" transform="translate(74.000000, 0.000000)" fill="#CB242B" fill-rule="nonzero">
            <path d="M20,0 C31.045695,0 40,8.954305 40,20 C40,31.045695 31.045695,40 20,40 C8.954305,40 0,31.045695 0,20 C0,8.954305 8.954305,0 20,0 Z M20,0.5 C9.23044738,0.5 0.5,9.23044738 0.5,20 C0.5,30.7695526 9.23044738,39.5 20,39.5 C30.7695526,39.5 39.5,30.7695526 39.5,20 C39.5,9.23044738 30.7695526,0.5 20,0.5 Z M23.6270852,6.31014159 C23.6845386,6.31014159 23.7402174,6.31839861 23.7943434,6.33625164 C24.7566327,6.65046479 24.4576087,9.47079569 25.2586291,10.0572674 C25.4383097,10.1887103 25.7049468,10.2342355 26.0175022,10.2342355 C26.7158163,10.2342355 27.6430568,10.0075021 28.3422582,10.0075021 C28.7393301,10.0075021 29.0625333,10.0806995 29.2284605,10.3101108 C29.8114241,11.1157284 27.9305457,13.2176983 28.2431012,14.1857784 C28.5445652,15.1199377 31.3043256,15.7032851 31.3043256,16.738314 C31.3043256,17.7737891 28.5445652,18.3569134 28.2431012,19.2912959 C27.9305457,20.2593759 29.8114241,22.3613459 29.2284605,23.1671866 C29.0625333,23.3963748 28.7391083,23.4695721 28.3420364,23.4695721 C28.0334934,23.4695721 27.6804736,23.4254364 27.3223001,23.3761105 L27.3210958,32.1044706 L20.4245067,29.1717482 L13.3412822,32.0925858 L13.341121,23.4037077 C13.0547058,23.4407757 12.7765858,23.4695721 12.5274845,23.4695721 C12.1304126,23.4695721 11.8069876,23.3963748 11.6410603,23.1669634 C11.0580967,22.3613459 12.9389752,20.2591528 12.6264197,19.2910727 C12.3251775,18.3569134 9.56519521,17.773566 9.56519521,16.738314 C9.56519521,15.7032851 12.3251775,15.1199377 12.6264197,14.1857784 C12.9389752,13.2176983 11.0583185,11.1157284 11.6412822,10.3098876 C11.8069876,10.0806995 12.1306344,10.007279 12.5274845,10.007279 C13.2264641,10.007279 14.1539264,10.2342355 14.8522405,10.2342355 C15.1647959,10.2342355 15.4312112,10.1887103 15.6111136,10.0570442 C16.412134,9.47079569 16.11311,6.65046479 17.0753993,6.33625164 C17.1295253,6.31839861 17.1852041,6.31014159 17.2424357,6.31014159 C18.1661269,6.31014159 19.4658163,8.48129204 20.4347604,8.48129204 C21.4037045,8.48129204 22.7036158,6.31014159 23.6270852,6.31014159 Z M25.9984441,23.2421614 C25.6936618,23.244773 25.4345617,23.2911024 25.2584073,23.4198068 C24.4573869,24.0062786 24.7566327,26.8266095 23.7943434,27.1408226 C23.7402174,27.1584525 23.6843168,27.1669327 23.6270852,27.1669327 C22.703394,27.1669327 21.4037045,24.9953359 20.4347604,24.9953359 C19.4658163,24.9953359 18.1661269,27.1669327 17.2424357,27.1669327 C17.1852041,27.1669327 17.1295253,27.1584525 17.0753993,27.1408226 C16.1128882,26.8266095 16.4119122,24.0062786 15.6111136,23.4198068 C15.4312112,23.288364 15.1645741,23.2428388 14.8520186,23.2428388 L14.6653219,23.2512837 C14.6698864,23.2827492 14.6722493,23.3149278 14.6722493,23.3476583 L14.6722493,30.1040622 L20.4324143,27.7288013 L25.9901287,30.0921773 L25.9901287,23.3476583 C25.9901287,23.3117578 25.9929714,23.2765212 25.9984441,23.2421614 Z M23.235559,8.10682493 C23.146606,8.19095729 23.061646,8.27285802 22.9904392,8.34181531 C22.2384428,9.06865641 21.4609361,9.82026856 20.4347604,9.82026856 C19.4085847,9.82026856 18.6310781,9.06865641 17.8790816,8.34181531 C17.8078749,8.27285802 17.7231366,8.19095729 17.6341837,8.10682493 C17.608008,8.24407003 17.5844942,8.37819084 17.5649734,8.48910273 C17.3866238,9.50136899 17.2022848,10.5480023 16.3941659,11.1398299 C15.9959849,11.4312805 15.4915484,11.573212 14.8522405,11.573212 C14.4112467,11.573212 13.952063,11.5091643 13.5077418,11.4473482 C13.3824091,11.4294952 13.2555235,11.4118653 13.1326309,11.3964671 C13.1880878,11.5158592 13.2437666,11.6314575 13.2899068,11.7271943 C13.7399956,12.6626926 14.2053904,13.62988 13.8923913,14.5995221 C13.5867125,15.546848 12.662134,16.0415998 11.7679459,16.5205071 C11.6525954,16.5821 11.5095164,16.658868 11.3675466,16.738314 C11.5095164,16.8182062 11.6525954,16.8947511 11.767724,16.956344 C12.662134,17.4352513 13.5867125,17.9302262 13.8923913,18.8775521 C14.2053904,19.8471943 13.7397737,20.8143817 13.2899068,21.7496568 C13.2437666,21.8456168 13.1880878,21.9609919 13.1324091,22.0806072 C13.2555235,22.0649858 13.3824091,22.0473559 13.5077418,22.029726 C13.952063,21.96791 14.4112467,21.9038623 14.8520186,21.9038623 C15.4915484,21.9038623 15.9959849,22.0455706 16.3941659,22.3372443 C17.2022848,22.9288488 17.3866238,23.9757053 17.5647516,24.9879715 C17.5842724,25.0988834 17.6077862,25.2330042 17.6341837,25.3702493 C17.7231366,25.286117 17.8078749,25.2042162 17.8793035,25.1352589 C18.6310781,24.4084179 19.4085847,23.6563594 20.4347604,23.6563594 C21.4609361,23.6563594 22.2384428,24.4084179 22.9904392,25.1352589 C23.061646,25.2042162 23.146606,25.286117 23.2353372,25.3702493 C23.2615129,25.2330042 23.2852484,25.0988834 23.3047693,24.9879715 C23.4828971,23.9757053 23.667236,22.9288488 24.4753549,22.3372443 C24.8735359,22.0457938 25.3781943,21.9038623 26.0175022,21.9038623 C26.4582742,21.9038623 26.9174579,21.96791 27.3617791,22.029726 C27.4871118,22.0475791 27.6139973,22.0652089 27.7371118,22.0806072 C27.681433,21.9609919 27.625976,21.8456168 27.5798358,21.74988 C27.1295253,20.8143817 26.6641304,19.8471943 26.9771295,18.8775521 C27.2828083,17.9302262 28.2076087,17.4354744 29.101575,16.9565671 C29.2169255,16.8947511 29.3600044,16.8182062 29.5019743,16.738314 C29.3600044,16.658868 29.2169255,16.5821 29.101575,16.5205071 C28.2076087,16.0415998 27.2830302,15.546848 26.9771295,14.5995221 C26.6643523,13.62988 27.1297471,12.6626926 27.5798358,11.7274175 C27.625976,11.6314575 27.681433,11.5160823 27.7371118,11.3964671 C27.6139973,11.4120885 27.4871118,11.4297184 27.3617791,11.4473482 C26.9176797,11.5091643 26.4582742,11.573212 26.0175022,11.573212 C25.3779725,11.573212 24.8735359,11.4312805 24.4753549,11.1398299 C23.667236,10.5480023 23.4828971,9.50136899 23.3047693,8.48910273 C23.2852484,8.37819084 23.2617347,8.24407003 23.235559,8.10682493 Z" id="合并形状"></path>
            <path d="M24.4276841,17.5494314 L24.4276841,18.8803986 L16.2200532,18.8803986 L16.2200532,17.5494314 L24.4276841,17.5494314 Z M24.4276841,14.6483156 L24.4276841,15.9792827 L16.2200532,15.9792827 L16.2200532,14.6483156 L24.4276841,14.6483156 Z" id="合并形状" opacity="0.5"></path>
        </g>
        <g id="分组" transform="translate(114.000000, 0.000000)" fill="#CB242B" fill-rule="nonzero">
            <path d="M20,0 C31.045695,0 40,8.954305 40,20 C40,31.045695 31.045695,40 20,40 C8.954305,40 0,31.045695 0,20 C0,8.954305 8.954305,0 20,0 Z M20,0.5 C9.23044738,0.5 0.5,9.23044738 0.5,20 C0.5,30.7695526 9.23044738,39.5 20,39.5 C30.7695526,39.5 39.5,30.7695526 39.5,20 C39.5,9.23044738 30.7695526,0.5 20,0.5 Z M20,8.86956522 C25.1874771,8.86956522 29.3913043,13.0950617 29.3913043,18.3056925 C29.3913043,19.8786424 28.6114137,21.8348146 27.2112961,24.124315 C26.5572489,25.1938261 25.7788533,26.3153899 24.9019088,27.4705788 C23.9395047,28.7383429 22.9097812,29.9804633 21.8801037,31.1463165 C21.5196712,31.5544166 21.1848007,31.9240411 20.8839488,32.2487755 C20.7025879,32.4445334 20.5722445,32.5824674 20.501387,32.6561402 L20,33.1774483 L19.498613,32.6561402 C19.4277555,32.5824674 19.2974121,32.4445334 19.1160512,32.2487755 C18.8151993,31.9240411 18.4803288,31.5544166 18.1198963,31.1463165 C17.0902188,29.9804633 16.0604953,28.7383429 15.0980912,27.4705788 C14.2211467,26.3153899 13.4427511,25.1938261 12.7887039,24.124315 C11.3885863,21.8348146 10.6086957,19.8786424 10.6086957,18.3056925 C10.6086957,13.0950617 14.8125229,8.86956522 20,8.86956522 Z M20,10.2608696 C15.5825249,10.2608696 12,13.8618611 12,18.3056925 C12,19.5580293 12.6984677,21.3099712 13.9756529,23.3984501 C14.6033003,24.4247917 15.3557328,25.508946 16.2062567,26.6293315 C17.1460265,27.8672796 18.1543464,29.0835817 19.1627124,30.225305 C19.4617733,30.5639169 19.7425993,30.8751865 20,31.1551389 C20.2574007,30.8751865 20.5382267,30.5639169 20.8372876,30.225305 C21.8456536,29.0835817 22.8539735,27.8672796 23.7937433,26.6293315 C24.6442672,25.508946 25.3966997,24.4247917 26.0243471,23.3984501 C27.3015323,21.3099712 28,19.5580293 28,18.3056925 C28,13.8618611 24.4174751,10.2608696 20,10.2608696 Z M18.5751927,16.7755038 C19.3918984,16.1098587 20.557557,16.098755 21.3866667,16.7487225 C20.9918056,16.9225128 20.7720935,17.3506178 20.8600764,17.7747745 C20.9480592,18.1989311 21.3196691,18.5031104 21.7507246,18.50381 C21.9299634,18.5061682 22.1058755,18.4550691 22.2562319,18.35697 L22.2562319,18.35697 L22.2562319,18.5387719 C22.2562319,19.5956473 21.53072,20.5127442 20.5062696,20.7507352 C19.4818193,20.9887261 18.4294947,20.4846483 17.9681482,19.5349403 C17.5068016,18.5852324 17.758487,17.4411488 18.5751927,16.7755038 Z" id="合并形状"></path>
            <path d="M19.9976812,23.0231585 C17.4358253,23.0231585 15.36,20.9366331 15.36,18.3639623 C15.36,15.7912916 17.4358253,13.7047662 19.9976812,13.7047662 C22.559537,13.7047662 24.6353623,15.7912916 24.6353623,18.3639623 C24.6353623,20.9366331 22.559537,23.0231585 19.9976812,23.0231585 Z M19.9976812,22.0956223 C22.0462023,22.0956223 23.7078261,20.4254335 23.7078261,18.3639623 C23.7078261,16.3024912 22.0462023,14.6323024 19.9976812,14.6323024 C17.94916,14.6323024 16.2875362,16.3024912 16.2875362,18.3639623 C16.2875362,20.4254335 17.94916,22.0956223 19.9976812,22.0956223 Z" id="椭圆形" opacity="0.5"></path>
        </g>
        <g id="分组" transform="translate(154.000000, 0.000000)" fill="#CB242B">
            <path d="M20,0 C31.045695,0 40,8.954305 40,20 C40,31.045695 31.045695,40 20,40 C8.954305,40 0,31.045695 0,20 C0,8.954305 8.954305,0 20,0 Z M20,0.5 C9.23044738,0.5 0.5,9.23044738 0.5,20 C0.5,30.7695526 9.23044738,39.5 20,39.5 C30.7695526,39.5 39.5,30.7695526 39.5,20 C39.5,9.23044738 30.7695526,0.5 20,0.5 Z M15.9359268,7.82608696 L15.935,8.906 L24.064,8.906 L24.0640732,7.82608696 L25.382151,7.82608696 L25.382,8.906 L27.0429291,8.90617849 C29.2801752,8.90617849 31.0938215,10.7198248 31.0938215,12.9570709 L31.0938215,27.0429291 C31.0938215,29.2801752 29.2801752,31.0938215 27.0429291,31.0938215 L12.9570709,31.0938215 C10.7198248,31.0938215 8.90617849,29.2801752 8.90617849,27.0429291 L8.90617849,12.9570709 C8.90617849,10.7198248 10.7198248,8.90617849 12.9570709,8.90617849 L14.617,8.906 L14.617849,7.82608696 L15.9359268,7.82608696 Z M14.617,10.224 L12.9570709,10.2242563 C11.4477791,10.2242563 10.2242563,11.4477791 10.2242563,12.9570709 L10.2242563,27.0429291 C10.2242563,28.5522209 11.4477791,29.7757437 12.9570709,29.7757437 L27.0429291,29.7757437 C28.5522209,29.7757437 29.7757437,28.5522209 29.7757437,27.0429291 L29.7757437,12.9570709 C29.7757437,11.4477791 28.5522209,10.2242563 27.0429291,10.2242563 L25.382,10.224 L25.382151,10.9389474 L24.0640732,10.9389474 L24.064,10.224 L15.935,10.224 L15.9359268,10.9389474 L14.617849,10.9389474 L14.617,10.224 Z M23.4704527,15.6201168 L23.4704527,16.4053814 L19.3131694,26.6138215 L18.2815473,26.6138215 L22.4850226,16.4977655 L16.3722764,16.4977655 L16.3722764,15.6201168 L23.4704527,15.6201168 Z" id="合并形状" fill-rule="nonzero"></path>
            <path d="M27.6721419,23.3094272 L27.820403,23.2355391 L27.7453876,23.335016 L27.6721419,23.335016 L27.6721419,23.3094272 Z M27.6721419,23.4321462 L26.0156136,25.6288467 L28.2901556,25.6288467 L28.2901556,25.6183616 L28.3006407,25.6288467 L28.5401556,25.6288467 L28.4203982,25.7486041 L28.5401556,25.8683616 L28.3006407,25.8683616 L28.2901556,25.8788467 L28.2901556,25.8683616 L27.8707963,25.8683616 L27.8707963,26.4818078 L27.9221419,26.4818078 L27.8707963,26.5331533 L27.8707963,26.7318078 L27.7714691,26.6324805 L27.6721419,26.7318078 L27.6721419,26.5331533 L27.6207963,26.4818078 L27.6721419,26.4818078 L27.6721419,23.4321462 Z M25.9912174,25.6611982 L25.940824,25.7280242 L25.9740275,25.6288467 L25.9912174,25.6288467 L25.9912174,25.6611982 Z M27.6054737,23.2589428 L27.8707963,23.2589428 L27.8707963,25.8683616 L25.5218906,25.8683616 L27.4055318,23.3588653 L27.6054737,23.2589428 Z" id="14" stroke="#CB242B" stroke-width="0.5" opacity="0.5"></path>
        </g>
        <g id="分组" transform="translate(194.000000, 0.000000)" fill="#CB242B" fill-rule="nonzero">
            <path d="M20,0 C31.045695,0 40,8.954305 40,20 C40,31.045695 31.045695,40 20,40 C8.954305,40 0,31.045695 0,20 C0,8.954305 8.954305,0 20,0 Z M20,0.5 C9.23044738,0.5 0.5,9.23044738 0.5,20 C0.5,30.7695526 9.23044738,39.5 20,39.5 C30.7695526,39.5 39.5,30.7695526 39.5,20 C39.5,9.23044738 30.7695526,0.5 20,0.5 Z M27.4629718,9.80410893 C27.683779,9.80410893 27.888506,9.91958772 28.0027205,10.1085609 L30.1049661,13.5868217 L30.1137623,13.6016183 C30.1246583,13.6207692 30.1345803,13.6405464 30.1434609,13.6608825 L30.134,13.642 L30.1586751,13.6981998 L30.1586751,13.6981998 L30.1720398,13.7406487 L30.1720398,13.7406487 C30.1777588,13.7584382 30.1821096,13.776524 30.1856203,13.79463 C30.1868978,13.8056901 30.1887475,13.8170969 30.190287,13.8286018 C30.1965757,13.8678699 30.1980588,13.9069962 30.1959479,13.9456265 L30.1958911,29.5652174 C30.1958911,29.9135288 29.9135288,30.1958911 29.5652174,30.1958911 L10.4347826,30.1958911 C10.0864712,30.1958911 9.80410893,29.9135288 9.80410893,29.5652174 L9.80405208,13.9456265 L9.80361351,13.8873662 L9.80361351,13.8873662 L9.80693774,13.852918 L9.80693774,13.852918 L9.805,13.887 L9.807,13.844 L9.81525332,13.7943902 L9.81525332,13.7943902 C9.81789044,13.776524 9.82224115,13.7584382 9.82745729,13.7404177 C9.83205818,13.7261958 9.8366586,13.7119541 9.84174136,13.6979436 C9.84588809,13.6858079 9.85087612,13.6734644 9.85629744,13.6611842 C9.86541974,13.6405464 9.87534174,13.6207692 9.8862377,13.6016183 C9.88881777,13.5972662 9.89188302,13.592035 9.89503391,13.5868217 L11.9972795,10.1085609 C12.111494,9.91958772 12.316221,9.80410893 12.5370282,9.80410893 L20.049,9.804 L27.4629718,9.80410893 Z M28.9345437,14.5437172 L11.0654563,14.5437172 L11.0654563,28.9345437 L28.9345437,28.9345437 L28.9345437,14.5437172 Z M19.419,11.065 L12.8927675,11.0654563 L11.5528747,13.2823698 L19.419,13.282 L19.419,11.065 Z M27.1072325,11.0654563 L20.68,11.065 L20.68,13.282 L28.4471253,13.2823698 L27.1072325,11.0654563 Z" id="合并形状"></path>
            <polygon id="Stroke-5" opacity="0.5" points="16.5217391 18.071978 16.5217391 16.8106307 23.4782609 16.8106307 23.4782609 18.071978"></polygon>
        </g>
        <g id="分组-3" transform="translate(243.000000, 0.000000)">
            <g id="分组">
                <g id="多边形" fill-rule="nonzero">
                    <use fill="black" fill-opacity="1" filter="url(#filter-5)" xlink:href="#path-4"></use>
                    <path stroke-opacity="0.8" stroke="#F6DFB3" stroke-width="1" d="M11.339392,1.09599044 C10.4817937,0.740761589 9.51820629,0.740761589 8.66060799,1.09599044 L4.65100763,2.75682128 C3.79340933,3.11205013 3.11205013,3.79340933 2.75682128,4.65100763 L1.09599044,8.66060799 C0.740761589,9.51820629 0.740761589,10.4817937 1.09599044,11.339392 L2.75682128,15.3489924 C3.11205013,16.2065907 3.79340933,16.8879499 4.65100763,17.2431787 L8.66060799,18.9040096 C9.51820629,19.2592384 10.4817937,19.2592384 11.339392,18.9040096 L15.3489924,17.2431787 C16.2065907,16.8879499 16.8879499,16.2065907 17.2431787,15.3489924 L18.9040096,11.339392 C19.2592384,10.4817937 19.2592384,9.51820629 18.9040096,8.66060799 L17.2431787,4.65100763 C16.8879499,3.79340933 16.2065907,3.11205013 15.3489924,2.75682128 L11.339392,1.09599044 Z" stroke-linejoin="square" fill="url(#linearGradient-3)" fill-rule="evenodd"></path>
                </g>
                <g id="Clip-2" opacity="0.9">
                    <use fill="black" fill-opacity="1" filter="url(#filter-7)" xlink:href="#path-6"></use>
                    <use fill="#FFEAC0" fill-rule="evenodd" xlink:href="#path-6"></use>
                </g>
                <g id="Fill-83-Copy" opacity="0.9">
                    <use fill="black" fill-opacity="1" filter="url(#filter-9)" xlink:href="#path-8"></use>
                    <use fill="#FFEAC0" fill-rule="evenodd" xlink:href="#path-8"></use>
                </g>
            </g>
            <g id="分组" transform="translate(40.000000, 0.000000)">
                <g id="多边形" fill-rule="nonzero">
                    <use fill="black" fill-opacity="1" filter="url(#filter-12)" xlink:href="#path-11"></use>
                    <path stroke-opacity="0.8" stroke="#F2BABC" stroke-width="1" d="M11.339392,1.09599044 C10.4817937,0.740761589 9.51820629,0.740761589 8.66060799,1.09599044 L4.65100763,2.75682128 C3.79340933,3.11205013 3.11205013,3.79340933 2.75682128,4.65100763 L1.09599044,8.66060799 C0.740761589,9.51820629 0.740761589,10.4817937 1.09599044,11.339392 L2.75682128,15.3489924 C3.11205013,16.2065907 3.79340933,16.8879499 4.65100763,17.2431787 L8.66060799,18.9040096 C9.51820629,19.2592384 10.4817937,19.2592384 11.339392,18.9040096 L15.3489924,17.2431787 C16.2065907,16.8879499 16.8879499,16.2065907 17.2431787,15.3489924 L18.9040096,11.339392 C19.2592384,10.4817937 19.2592384,9.51820629 18.9040096,8.66060799 L17.2431787,4.65100763 C16.8879499,3.79340933 16.2065907,3.11205013 15.3489924,2.75682128 L11.339392,1.09599044 Z" stroke-linejoin="square" fill="url(#linearGradient-10)" fill-rule="evenodd"></path>
                </g>
                <g id="Clip-2" opacity="0.9">
                    <use fill="black" fill-opacity="1" filter="url(#filter-14)" xlink:href="#path-13"></use>
                    <use fill="#F9C9CC" fill-rule="evenodd" xlink:href="#path-13"></use>
                </g>
                <g id="Fill-81-Copy" opacity="0.9">
                    <use fill="black" fill-opacity="1" filter="url(#filter-16)" xlink:href="#path-15"></use>
                    <use fill="#F9C9CC" fill-rule="evenodd" xlink:href="#path-15"></use>
                </g>
            </g>
            <g id="分组" transform="translate(60.000000, 0.000000)">
                <g id="多边形" fill-rule="nonzero">
                    <use fill="black" fill-opacity="1" filter="url(#filter-19)" xlink:href="#path-18"></use>
                    <path stroke-opacity="0.8" stroke="#E5E5E5" stroke-width="1" d="M11.339392,1.09599044 C10.4817937,0.740761589 9.51820629,0.740761589 8.66060799,1.09599044 L4.65100763,2.75682128 C3.79340933,3.11205013 3.11205013,3.79340933 2.75682128,4.65100763 L1.09599044,8.66060799 C0.740761589,9.51820629 0.740761589,10.4817937 1.09599044,11.339392 L2.75682128,15.3489924 C3.11205013,16.2065907 3.79340933,16.8879499 4.65100763,17.2431787 L8.66060799,18.9040096 C9.51820629,19.2592384 10.4817937,19.2592384 11.339392,18.9040096 L15.3489924,17.2431787 C16.2065907,16.8879499 16.8879499,16.2065907 17.2431787,15.3489924 L18.9040096,11.339392 C19.2592384,10.4817937 19.2592384,9.51820629 18.9040096,8.66060799 L17.2431787,4.65100763 C16.8879499,3.79340933 16.2065907,3.11205013 15.3489924,2.75682128 L11.339392,1.09599044 Z" stroke-linejoin="square" fill="url(#linearGradient-17)" fill-rule="evenodd"></path>
                </g>
                <g id="Clip-2" opacity="0.9">
                    <use fill="black" fill-opacity="1" filter="url(#filter-21)" xlink:href="#path-20"></use>
                    <use fill="#E1E1E1" fill-rule="evenodd" xlink:href="#path-20"></use>
                </g>
                <g id="Fill-1" opacity="0.9">
                    <use fill="black" fill-opacity="1" filter="url(#filter-23)" xlink:href="#path-22"></use>
                    <use fill="#E1E1E1" fill-rule="evenodd" xlink:href="#path-22"></use>
                </g>
            </g>
            <g id="分组" transform="translate(80.000000, 0.000000)">
                <g id="多边形" fill-rule="nonzero">
                    <use fill="black" fill-opacity="1" filter="url(#filter-25)" xlink:href="#path-24"></use>
                    <path stroke-opacity="0.8" stroke="#E5E5E5" stroke-width="1" d="M11.339392,1.09599044 C10.4817937,0.740761589 9.51820629,0.740761589 8.66060799,1.09599044 L4.65100763,2.75682128 C3.79340933,3.11205013 3.11205013,3.79340933 2.75682128,4.65100763 L1.09599044,8.66060799 C0.740761589,9.51820629 0.740761589,10.4817937 1.09599044,11.339392 L2.75682128,15.3489924 C3.11205013,16.2065907 3.79340933,16.8879499 4.65100763,17.2431787 L8.66060799,18.9040096 C9.51820629,19.2592384 10.4817937,19.2592384 11.339392,18.9040096 L15.3489924,17.2431787 C16.2065907,16.8879499 16.8879499,16.2065907 17.2431787,15.3489924 L18.9040096,11.339392 C19.2592384,10.4817937 19.2592384,9.51820629 18.9040096,8.66060799 L17.2431787,4.65100763 C16.8879499,3.79340933 16.2065907,3.11205013 15.3489924,2.75682128 L11.339392,1.09599044 Z" stroke-linejoin="square" fill="url(#linearGradient-17)" fill-rule="evenodd"></path>
                </g>
                <g id="Clip-2" opacity="0.9">
                    <use fill="black" fill-opacity="1" filter="url(#filter-27)" xlink:href="#path-26"></use>
                    <use fill="#D5D5D4" fill-rule="evenodd" xlink:href="#path-26"></use>
                </g>
                <g id="Fill-79" opacity="0.9">
                    <use fill="black" fill-opacity="1" filter="url(#filter-29)" xlink:href="#path-28"></use>
                    <use fill="#D8D7D6" fill-rule="evenodd" xlink:href="#path-28"></use>
                </g>
            </g>
            <g id="分组" transform="translate(100.000000, 0.000000)">
                <g id="多边形" fill-rule="nonzero">
                    <use fill="black" fill-opacity="1" filter="url(#filter-31)" xlink:href="#path-30"></use>
                    <path stroke-opacity="0.8" stroke="#E5E5E5" stroke-width="1" d="M11.339392,1.09599044 C10.4817937,0.740761589 9.51820629,0.740761589 8.66060799,1.09599044 L4.65100763,2.75682128 C3.79340933,3.11205013 3.11205013,3.79340933 2.75682128,4.65100763 L1.09599044,8.66060799 C0.740761589,9.51820629 0.740761589,10.4817937 1.09599044,11.339392 L2.75682128,15.3489924 C3.11205013,16.2065907 3.79340933,16.8879499 4.65100763,17.2431787 L8.66060799,18.9040096 C9.51820629,19.2592384 10.4817937,19.2592384 11.339392,18.9040096 L15.3489924,17.2431787 C16.2065907,16.8879499 16.8879499,16.2065907 17.2431787,15.3489924 L18.9040096,11.339392 C19.2592384,10.4817937 19.2592384,9.51820629 18.9040096,8.66060799 L17.2431787,4.65100763 C16.8879499,3.79340933 16.2065907,3.11205013 15.3489924,2.75682128 L11.339392,1.09599044 Z" stroke-linejoin="square" fill="url(#linearGradient-17)" fill-rule="evenodd"></path>
                </g>
                <g id="Clip-2" opacity="0.9">
                    <use fill="black" fill-opacity="1" filter="url(#filter-33)" xlink:href="#path-32"></use>
                    <use fill="#D5D5D4" fill-rule="evenodd" xlink:href="#path-32"></use>
                </g>
                <ellipse id="椭圆形" stroke="#CDCCCB" stroke-width="1.7" cx="14.2" cy="10.2" rx="2.65" ry="2.95"></ellipse>
            </g>
            <g id="分组-4" transform="translate(20.000000, 0.000000)">
                <g id="多边形" fill-rule="nonzero">
                    <use fill="black" fill-opacity="1" filter="url(#filter-35)" xlink:href="#path-34"></use>
                    <path stroke-opacity="0.8" stroke="#F2BABC" stroke-width="1" d="M11.339392,1.09599044 C10.4817937,0.740761589 9.51820629,0.740761589 8.66060799,1.09599044 L4.65100763,2.75682128 C3.79340933,3.11205013 3.11205013,3.79340933 2.75682128,4.65100763 L1.09599044,8.66060799 C0.740761589,9.51820629 0.740761589,10.4817937 1.09599044,11.339392 L2.75682128,15.3489924 C3.11205013,16.2065907 3.79340933,16.8879499 4.65100763,17.2431787 L8.66060799,18.9040096 C9.51820629,19.2592384 10.4817937,19.2592384 11.339392,18.9040096 L15.3489924,17.2431787 C16.2065907,16.8879499 16.8879499,16.2065907 17.2431787,15.3489924 L18.9040096,11.339392 C19.2592384,10.4817937 19.2592384,9.51820629 18.9040096,8.66060799 L17.2431787,4.65100763 C16.8879499,3.79340933 16.2065907,3.11205013 15.3489924,2.75682128 L11.339392,1.09599044 Z" stroke-linejoin="square" fill="url(#linearGradient-10)" fill-rule="evenodd"></path>
                </g>
                <g id="Clip-2" opacity="0.9">
                    <use fill="black" fill-opacity="1" filter="url(#filter-37)" xlink:href="#path-36"></use>
                    <use fill="#F9C9CC" fill-rule="evenodd" xlink:href="#path-36"></use>
                </g>
                <g id="Fill-82" opacity="0.9">
                    <use fill="black" fill-opacity="1" filter="url(#filter-39)" xlink:href="#path-38"></use>
                    <use fill="#F9C9CC" fill-rule="evenodd" xlink:href="#path-38"></use>
                </g>
            </g>
        </g>
        <g id="banner箭头左" transform="translate(0.000000, 72.000000)">
            <rect id="矩形" x="0" y="0" width="80" height="80"></rect>
            <circle id="Oval-5" fill="#000000" fill-rule="nonzero" opacity="0.100000001" cx="40" cy="40" r="28"></circle>
            <polygon id="Prev" fill="#FFFFFF" opacity="0.699999988" transform="translate(38.500000, 40.000000) rotate(-180.000000) translate(-38.500000, -40.000000) " points="35.200039 32 34 33.279975 40.3000586 39.9996877 34 46.720025 35.200039 48 43 40.0003123"></polygon>
        </g>
        <g id="banner箭头右" transform="translate(120.000000, 112.000000) scale(-1, 1) translate(-120.000000, -112.000000) translate(80.000000, 72.000000)">
            <rect id="矩形-copy" x="0" y="0" width="80" height="80"></rect>
            <circle id="Oval-5" fill="#000000" fill-rule="nonzero" opacity="0.100000001" cx="40" cy="40" r="28"></circle>
            <polygon id="Prev" fill="#FFFFFF" opacity="0.699999988" transform="translate(38.500000, 40.000000) rotate(-180.000000) translate(-38.500000, -40.000000) " points="35.200039 32 34 33.279975 40.3000586 39.9996877 34 46.720025 35.200039 48 43 40.0003123"></polygon>
        </g>
        <g id="banner箭头右移入" transform="translate(160.000000, 72.000000)">
            <rect id="矩形-copy-2" x="0" y="0" width="80" height="80"></rect>
            <g id="Oval-5-Copy" opacity="0.300000012" fill-rule="nonzero">
                <use fill="black" fill-opacity="1" filter="url(#filter-41)" xlink:href="#path-40"></use>
                <use fill="#000000" xlink:href="#path-40"></use>
            </g>
            <polygon id="Next" fill="#FFFFFF" opacity="0.900000036" points="38.200039 32 37 33.279975 43.3000586 39.9996877 37 46.720025 38.200039 48 46 40.0003123"></polygon>
        </g>
        <g id="banner箭头左移入" transform="translate(280.000000, 112.000000) scale(-1, 1) translate(-280.000000, -112.000000) translate(240.000000, 72.000000)">
            <rect id="矩形-copy-3" x="0" y="0" width="80" height="80"></rect>
            <g id="Oval-5-Copy" opacity="0.300000012" fill-rule="nonzero">
                <use fill="black" fill-opacity="1" filter="url(#filter-43)" xlink:href="#path-42"></use>
                <use fill="#000000" xlink:href="#path-42"></use>
            </g>
            <polygon id="Next" fill="#FFFFFF" opacity="0.900000036" points="38.200039 32 37 33.279975 43.3000586 39.9996877 37 46.720025 38.200039 48 46 40.0003123"></polygon>
        </g>
        <g id="Title" transform="translate(247.000000, 35.000000)">
            <rect id="矩形" x="0" y="0" width="112" height="28"></rect>
            <g id="限时购">
                <use fill="#CA141D" xlink:href="#path-45"></use>
                <use fill="#CA141D" xlink:href="#path-45"></use>
                <use fill="url(#linearGradient-44)" xlink:href="#path-45"></use>
            </g>
            <polygon id="Light-icon" fill="url(#linearGradient-46)" fill-rule="nonzero" points="18 13.9713607 10.2668942 13.7521155 17.8549666 3.25656348 8.80558745 3 1 16.0095464 8.07496917 16.2101324 1.69441255 28"></polygon>
        </g>
        <circle id="椭圆形" fill="#000000" opacity="0.200000003" cx="335" cy="96" r="12"></circle>
        <circle id="椭圆形-copy" fill="#000000" opacity="0.200000003" cx="335" cy="120" r="12"></circle>
        <path d="M329.722287,122 C329.323379,122 329,121.552285 329,121 C329,120.447715 329.323379,120 329.722287,120 L339.277713,120 C339.676621,120 340,120.447715 340,121 C340,121.552285 339.676621,122 339.277713,122 L329.722287,122 Z" id="路径-7" fill="#FFFFFF" fill-rule="nonzero"></path>
        <path d="M330.209209,91.3412982 C329.930264,91.0344577 329.930264,90.5369709 330.209209,90.2301304 C330.488155,89.9232899 330.940416,89.9232899 331.219362,90.2301304 L339.790791,99.6587018 C340.069736,99.9655423 340.069736,100.463029 339.790791,100.76987 C339.511845,101.07671 339.059584,101.07671 338.780638,100.76987 L330.209209,91.3412982 Z" id="路径-2" fill="#FFFFFF" fill-rule="nonzero"></path>
        <path d="M330.209209,91.3412982 C329.930264,91.0344577 329.930264,90.5369709 330.209209,90.2301304 C330.488155,89.9232899 330.940416,89.9232899 331.219362,90.2301304 L339.790791,99.6587018 C340.069736,99.9655423 340.069736,100.463029 339.790791,100.76987 C339.511845,101.07671 339.059584,101.07671 338.780638,100.76987 L330.209209,91.3412982 Z" id="路径-2" fill="#FFFFFF" fill-rule="nonzero" transform="translate(335.000000, 95.500000) scale(-1, 1) translate(-335.000000, -95.500000) "></path>
        <g id="编组" transform="translate(363.000000, 0.000000)">
            <rect id="Rectangle-26-Copy-2" x="-1.77635684e-15" y="-1.77635684e-15" width="16" height="16"></rect>
            <path d="M5.60947571,7.66666667 L11.1380712,13.1952621 C11.3984207,13.4556117 11.3984207,13.8777217 11.1380712,14.1380712 C10.8777217,14.3984207 10.4556117,14.3984207 10.1952621,14.1380712 L4.19526215,8.13807119 C3.93491262,7.87772166 3.93491262,7.45561167 4.19526215,7.19526215 L10.1952621,1.19526215 C10.4556117,0.934912618 10.8777217,0.934912618 11.1380712,1.19526215 C11.3984207,1.45561167 11.3984207,1.87772166 11.1380712,2.13807119 L5.60947571,7.66666667 Z" id="Path" fill="#000000" fill-rule="nonzero" opacity="0.3" transform="translate(7.666667, 7.666667) rotate(-180.000000) translate(-7.666667, -7.666667) "></path>
        </g>
    </g>
</svg>