<?xml version="1.0" encoding="UTF-8"?>
<svg width="96px" height="96px" viewBox="0 0 96 96" version="1.1" xmlns="http://www.w3.org/2000/svg" xmlns:xlink="http://www.w3.org/1999/xlink">
    <!-- Generator: Sketch 61.2 (89653) - https://sketch.com -->
    <title>ic_bar_phone</title>
    <desc>Created with Sketch.</desc>
    <defs>
        <radialGradient cx="90.5989625%" cy="-6.64131527%" fx="90.5989625%" fy="-6.64131527%" r="142.071581%" gradientTransform="translate(0.905990,-0.066413),scale(1.000000,0.623529),rotate(113.386753),translate(-0.905990,0.066413)" id="radialGradient-1">
            <stop stop-color="#FFFFFF" stop-opacity="0.5" offset="0%"></stop>
            <stop stop-color="#FFFFFF" stop-opacity="0" offset="100%"></stop>
        </radialGradient>
        <linearGradient x1="58.9767207%" y1="-13.4247586%" x2="33.1748353%" y2="91.477874%" id="linearGradient-2">
            <stop stop-color="#000000" offset="0%"></stop>
            <stop stop-color="#000000" offset="100%"></stop>
            <stop stop-color="#000000" offset="100%"></stop>
        </linearGradient>
        <path d="M9.14638836,8.64359762 C7.82050267,8.64359762 6.74565995,9.41308219 6.74565995,10.3622895 L6.74565995,70.9249057 C6.74565995,71.8741131 7.82050267,72.6435976 9.14638836,72.6435976 L44.3449316,72.6435976 C45.6708172,72.6435976 46.74566,71.8741131 46.74566,70.9249057 L46.74566,10.3622895 C46.74566,9.41308219 45.6708172,8.64359762 44.3449316,8.64359762 L9.14638836,8.64359762 Z M9.33333333,0.666666667 L44,0.666666667 C48.7864678,0.666666667 52.6666667,4.08558312 52.6666667,8.3030303 L52.6666667,77.030303 C52.6666667,81.2477502 48.7864678,84.6666667 44,84.6666667 L9.33333333,84.6666667 C4.5468655,84.6666667 0.666666667,81.2477502 0.666666667,77.030303 L0.666666667,8.3030303 C0.666666667,4.08558312 4.5468655,0.666666667 9.33333333,0.666666667 Z" id="path-3"></path>
    </defs>
    <g id="ic_bar_phone" stroke="none" stroke-width="1" fill="none" fill-rule="evenodd">
        <path d="" id="Path-8" stroke="#979797" stroke-width="4"></path>
        <g id="phone" opacity="0.900000036" transform="translate(23.333333, 7.333333)">
            <mask id="mask-4" fill="white">
                <use xlink:href="#path-3"></use>
            </mask>
            <use id="合并形状" fill="url(#linearGradient-2)" xlink:href="#path-3"></use>
            <polygon id="Rectangle-10" mask="url(#mask-4)" points="9.22222222 9.21212121 41.4444444 9.21212121 41.4444444 12.4242424 9.22222222 12.4242424"></polygon>
        </g>
    </g>
</svg>